<mxfile host="app.diagrams.net" modified="2023-04-17T08:36:04.192Z" agent="Mozilla/5.0 (Windows NT 10.0; Win64; x64) AppleWebKit/537.36 (KHTML, like Gecko) Chrome/112.0.0.0 Safari/537.36 Edg/112.0.1722.48" version="21.1.3" etag="cuXY6fGtKL83dsD1XIBY" type="github">
  <diagram name="第 1 页" id="M_ltHOjbJBE1yKod7ieO">
    <mxGraphModel>
      <root>
        <mxCell id="0" />
        <mxCell id="1" parent="0" />
      </root>
    </mxGraphModel>
  </diagram>
</mxfile>
